<svg width="31" height="32" viewBox="0 0 31 32" fill="none" xmlns="http://www.w3.org/2000/svg">
<g filter="url(#filter0_d_3320_1157)">
<path d="M18.375 22.4825L13.4875 17.595L15.0975 15.985L18.375 19.2625L24.8725 12.765L26.4825 14.375L18.375 22.4825ZM24.7 11.0687H22.4V5.31875H20.1V8.76875H8.6V5.31875H6.3V21.4187H13.2V23.7188H6.3C5.6675 23.7188 5.12623 23.4937 4.6762 23.0437C4.22617 22.5937 4.00077 22.052 4 21.4187V5.31875C4 4.68625 4.2254 4.14498 4.6762 3.69495C5.127 3.24492 5.66827 3.01952 6.3 3.01875H11.1013C11.3121 2.34792 11.7242 1.79707 12.3375 1.3662C12.9508 0.935333 13.6217 0.719517 14.35 0.71875C15.1167 0.71875 15.8021 0.934567 16.4062 1.3662C17.0103 1.79783 17.4174 2.34868 17.6275 3.01875H22.4C23.0325 3.01875 23.5742 3.24415 24.025 3.69495C24.4757 4.14575 24.7008 4.68702 24.7 5.31875V11.0687ZM14.35 5.31875C14.6758 5.31875 14.9492 5.20835 15.17 4.98755C15.3907 4.76675 15.5008 4.49382 15.5 4.16875C15.4992 3.84368 15.3888 3.57075 15.1688 3.34995C14.9488 3.12915 14.6758 3.01875 14.35 3.01875C14.0242 3.01875 13.7512 3.12915 13.5312 3.34995C13.3112 3.57075 13.2008 3.84368 13.2 4.16875C13.1992 4.49382 13.3096 4.76713 13.5312 4.9887C13.7528 5.21027 14.0257 5.32028 14.35 5.31875Z" fill="#0D1821"/>
</g>
<defs>
<filter id="filter0_d_3320_1157" x="0" y="0.71875" width="30.4824" height="31" filterUnits="userSpaceOnUse" color-interpolation-filters="sRGB">
<feFlood flood-opacity="0" result="BackgroundImageFix"/>
<feColorMatrix in="SourceAlpha" type="matrix" values="0 0 0 0 0 0 0 0 0 0 0 0 0 0 0 0 0 0 127 0" result="hardAlpha"/>
<feOffset dy="4"/>
<feGaussianBlur stdDeviation="2"/>
<feComposite in2="hardAlpha" operator="out"/>
<feColorMatrix type="matrix" values="0 0 0 0 0 0 0 0 0 0 0 0 0 0 0 0 0 0 0.25 0"/>
<feBlend mode="normal" in2="BackgroundImageFix" result="effect1_dropShadow_3320_1157"/>
<feBlend mode="normal" in="SourceGraphic" in2="effect1_dropShadow_3320_1157" result="shape"/>
</filter>
</defs>
</svg>
