<svg width="24" height="25" viewBox="0 0 24 25" fill="none" xmlns="http://www.w3.org/2000/svg">
<path opacity="0.16" d="M15.5322 16.5195H8.2649C7.22167 16.5196 6.20631 16.8563 5.36969 17.4795C4.53307 18.1027 3.91983 18.9792 3.62109 19.9788C4.64338 21.1743 5.91282 22.1339 7.34186 22.7913C8.7709 23.4488 10.3255 23.7884 11.8986 23.7868C13.4716 23.7884 15.0262 23.4488 16.4552 22.7913C17.8843 22.1339 19.1537 21.1743 20.176 19.9788C19.8773 18.9792 19.264 18.1027 18.4274 17.4795C17.5908 16.8563 16.5754 16.5196 15.5322 16.5195Z" fill="#0D1821"/>
<path d="M22.8019 12.8867C22.8055 15.0509 22.1618 17.1667 20.9536 18.9622C19.9572 20.4483 18.61 21.666 17.0311 22.5076C15.4522 23.3493 13.6902 23.7889 11.901 23.7877C10.1117 23.7889 8.34977 23.3493 6.77085 22.5076C5.19194 21.666 3.84472 20.4483 2.84832 18.9622C1.89961 17.548 1.29542 15.9312 1.08419 14.2414C0.872955 12.5516 1.06056 10.8358 1.63195 9.2316C2.20334 7.62738 3.14264 6.17934 4.37453 5.00357C5.60643 3.8278 7.09666 2.95699 8.72576 2.46096C10.3549 1.96493 12.0775 1.85748 13.7556 2.14722C15.4337 2.43695 17.0206 3.11582 18.3891 4.12939C19.7576 5.14296 20.8695 6.46305 21.6358 7.98383C22.4022 9.50461 22.8015 11.1838 22.8019 12.8867Z" stroke="#0D1821" stroke-width="2"/>
<path d="M13.1075 9.25475C13.1075 9.57598 12.9799 9.88406 12.7528 10.1112C12.5256 10.3384 12.2175 10.466 11.8963 10.466V12.8884C12.86 12.8884 13.7842 12.5056 14.4657 11.8241C15.1471 11.1427 15.5299 10.2185 15.5299 9.25475H13.1075ZM11.8963 10.466C11.5751 10.466 11.267 10.3384 11.0398 10.1112C10.8127 9.88406 10.6851 9.57598 10.6851 9.25475H8.26264C8.26264 10.2185 8.64547 11.1427 9.32691 11.8241C10.0084 12.5056 10.9326 12.8884 11.8963 12.8884V10.466ZM10.6851 9.25475C10.6851 8.93351 10.8127 8.62543 11.0398 8.39829C11.267 8.17114 11.5751 8.04353 11.8963 8.04353V5.62109C10.9326 5.62109 10.0084 6.00392 9.32691 6.68537C8.64547 7.36681 8.26264 8.29104 8.26264 9.25475H10.6851ZM11.8963 8.04353C12.2175 8.04353 12.5256 8.17114 12.7528 8.39829C12.9799 8.62543 13.1075 8.93351 13.1075 9.25475H15.5299C15.5299 8.29104 15.1471 7.36681 14.4657 6.68537C13.7842 6.00392 12.86 5.62109 11.8963 5.62109V8.04353ZM3.61883 19.9813L2.45727 19.6361L2.26953 20.2696L2.69951 20.7698L3.61883 19.9813ZM20.1738 19.9813L21.0943 20.7698L21.523 20.2696L21.3353 19.6361L20.1738 19.9813ZM8.26264 17.7333H15.5299V15.3108H8.26264V17.7333ZM8.26264 15.3108C6.95832 15.3108 5.68882 15.7317 4.64288 16.511C3.59694 17.2903 2.83042 18.3863 2.45727 19.6361L4.77917 20.3265C5.00356 19.577 5.46369 18.9199 6.09124 18.4527C6.71879 17.9855 7.48029 17.7332 8.26264 17.7333V15.3108ZM11.8963 22.5781C10.4979 22.5797 9.11587 22.2779 7.84551 21.6934C6.57514 21.1089 5.44673 20.2558 4.53814 19.1928L2.69951 20.7698C3.8355 22.0979 5.24596 23.1639 6.83368 23.8943C8.4214 24.6247 10.1486 25.0021 11.8963 25.0006V22.5781ZM15.5299 17.7333C17.1736 17.7333 18.5653 18.8258 19.0134 20.3277L21.3353 19.6361C20.9622 18.3865 20.1947 17.2906 19.149 16.5114C18.1033 15.7321 16.8341 15.3111 15.5299 15.3108V17.7333ZM19.2544 19.1928C18.3459 20.2558 17.2174 21.1089 15.9471 21.6934C14.6767 22.2779 13.2947 22.5797 11.8963 22.5781V25.0006C13.644 25.0021 15.3712 24.6247 16.9589 23.8943C18.5466 23.1639 19.9583 22.0979 21.0943 20.7698L19.2544 19.1928Z" fill="#0D1821"/>
</svg>
